<svg width="68" height="68" viewBox="0 0 68 68" fill="none" xmlns="http://www.w3.org/2000/svg">
<path fill-rule="evenodd" clip-rule="evenodd" d="M63.75 8.5C63.75 6.15279 61.8472 4.25 59.5 4.25H8.5C6.15279 4.25 4.25 6.15279 4.25 8.5V59.5C4.25 61.8472 6.15279 63.75 8.5 63.75H59.5C61.8472 63.75 63.75 61.8472 63.75 59.5V8.5ZM0 8.5C0 3.80558 3.80558 0 8.5 0H59.5C64.1944 0 68 3.80558 68 8.5V59.5C68 64.1944 64.1944 68 59.5 68H8.5C3.80558 68 0 64.1944 0 59.5V8.5ZM36.125 24.2552V48.875C36.125 50.0486 35.1736 51 34 51C32.8264 51 31.875 50.0486 31.875 48.875V24.2552L22.7526 33.3776C21.9227 34.2075 20.5773 34.2075 19.7474 33.3776C18.9175 32.5477 18.9175 31.2023 19.7474 30.3724L32.4974 17.6224C33.3273 16.7925 34.6727 16.7925 35.5026 17.6224L48.2526 30.3724C49.0825 31.2023 49.0825 32.5477 48.2526 33.3776C47.4227 34.2075 46.0773 34.2075 45.2474 33.3776L36.125 24.2552Z" fill="black" fill-opacity="0.17"/>
</svg>
