<svg width="19" height="20" viewBox="0 0 19 20" fill="none" xmlns="http://www.w3.org/2000/svg">
<path d="M9.55433 12.3234C10.8375 12.3234 11.8777 11.2832 11.8777 10C11.8777 8.71684 10.8375 7.67664 9.55433 7.67664C8.27116 7.67664 7.23096 8.71684 7.23096 10C7.23096 11.2832 8.27116 12.3234 9.55433 12.3234Z" stroke="#444750" stroke-width="1.16168" stroke-miterlimit="10" stroke-linecap="round" stroke-linejoin="round"/>
<path d="M1.80957 10.6815V9.3185C1.80957 8.51306 2.46786 7.84703 3.28104 7.84703C4.6828 7.84703 5.2559 6.85573 4.55114 5.63983C4.14843 4.94282 4.38851 4.03671 5.09326 3.63399L6.43307 2.86728C7.04489 2.50328 7.83484 2.72013 8.19883 3.33195L8.28402 3.4791C8.98103 4.69499 10.1272 4.69499 10.832 3.4791L10.9172 3.33195C11.2812 2.72013 12.0711 2.50328 12.6829 2.86728L14.0227 3.63399C14.7275 4.03671 14.9676 4.94282 14.5649 5.63983C13.8601 6.85573 14.4332 7.84703 15.835 7.84703C16.6404 7.84703 17.3064 8.50532 17.3064 9.3185V10.6815C17.3064 11.487 16.6481 12.153 15.835 12.153C14.4332 12.153 13.8601 13.1443 14.5649 14.3602C14.9676 15.065 14.7275 15.9633 14.0227 16.366L12.6829 17.1328C12.0711 17.4968 11.2812 17.2799 10.9172 16.6681L10.832 16.5209C10.135 15.305 8.98878 15.305 8.28402 16.5209L8.19883 16.6681C7.83484 17.2799 7.04489 17.4968 6.43307 17.1328L5.09326 16.366C4.38851 15.9633 4.14843 15.0572 4.55114 14.3602C5.2559 13.1443 4.6828 12.153 3.28104 12.153C2.46786 12.153 1.80957 11.487 1.80957 10.6815Z" stroke="#444750" stroke-width="1.16168" stroke-miterlimit="10" stroke-linecap="round" stroke-linejoin="round"/>
</svg>
